<?xml version="1.0" encoding="UTF-8" standalone="no"?>
<!DOCTYPE svg PUBLIC "-//W3C//DTD SVG 1.1//EN"
 "http://www.w3.org/Graphics/SVG/1.1/DTD/svg11.dtd">
<!-- Generated by graphviz version 2.40.1 (20161225.0304)
 -->
<!-- Title: dependencies Pages: 1 -->
<svg width="904pt" height="211pt"
 viewBox="0.00 0.00 904.00 211.00" xmlns="http://www.w3.org/2000/svg" xmlns:xlink="http://www.w3.org/1999/xlink">
<g id="graph0" class="graph" transform="scale(1 1) rotate(0) translate(4 207)">
<title>dependencies</title>
<polygon fill="#ffffff" stroke="transparent" points="-4,4 -4,-207 900,-207 900,4 -4,4"/>
<text text-anchor="start" x="427.0091" y="-42.4" font-family="sans-serif" font-weight="bold" font-size="14.00" fill="#000000">Legend</text>
<polygon fill="#ffffb3" stroke="transparent" points="214,-10 214,-30 234,-30 234,-10 214,-10"/>
<text text-anchor="start" x="237.629" y="-15.4" font-family="sans-serif" font-size="14.00" fill="#000000"> &#160;Declarations</text>
<polygon fill="#8dd3c7" stroke="transparent" points="327,-10 327,-30 347,-30 347,-10 327,-10"/>
<text text-anchor="start" x="350.7251" y="-15.4" font-family="sans-serif" font-size="14.00" fill="#000000"> &#160;Module</text>
<polygon fill="#80b1d3" stroke="transparent" points="413,-10 413,-30 433,-30 433,-10 413,-10"/>
<text text-anchor="start" x="436.7812" y="-15.4" font-family="sans-serif" font-size="14.00" fill="#000000"> &#160;Bootstrap</text>
<polygon fill="#fdb462" stroke="transparent" points="510,-10 510,-30 530,-30 530,-10 510,-10"/>
<text text-anchor="start" x="533.6732" y="-15.4" font-family="sans-serif" font-size="14.00" fill="#000000"> &#160;Providers</text>
<polygon fill="#fb8072" stroke="transparent" points="606,-10 606,-30 626,-30 626,-10 606,-10"/>
<text text-anchor="start" x="629.7258" y="-15.4" font-family="sans-serif" font-size="14.00" fill="#000000"> &#160;Exports</text>
<g id="clust1" class="cluster">
<title>cluster_PublicModule</title>
<polygon fill="none" stroke="#000000" stroke-dasharray="1,5" points="8,-70 8,-195 888,-195 888,-70 8,-70"/>
</g>
<g id="clust2" class="cluster">
<title>cluster_PublicModule_declarations</title>
<polygon fill="none" stroke="#000000" points="305,-78 305,-130 880,-130 880,-78 305,-78"/>
</g>
<g id="clust7" class="cluster">
<title>cluster_PublicModule_imports</title>
<polygon fill="none" stroke="#000000" points="16,-78 16,-130 297,-130 297,-78 16,-78"/>
</g>
<!-- CoursdetailComponent -->
<g id="node1" class="node">
<title>CoursdetailComponent</title>
<polygon fill="#ffffb3" stroke="#000000" points="871.8753,-122 726.1247,-122 726.1247,-86 871.8753,-86 871.8753,-122"/>
<text text-anchor="middle" x="799" y="-99.8" font-family="Times,serif" font-size="14.00" fill="#000000">CoursdetailComponent</text>
</g>
<!-- PublicModule -->
<g id="node5" class="node">
<title>PublicModule</title>
<polygon fill="#8dd3c7" stroke="#000000" points="480.8288,-187 477.8288,-191 456.8288,-191 453.8288,-187 385.1712,-187 385.1712,-151 480.8288,-151 480.8288,-187"/>
<text text-anchor="middle" x="433" y="-164.8" font-family="Times,serif" font-size="14.00" fill="#000000">PublicModule</text>
</g>
<!-- CoursdetailComponent&#45;&gt;PublicModule -->
<g id="edge1" class="edge">
<title>CoursdetailComponent&#45;&gt;PublicModule</title>
<path fill="none" stroke="#000000" d="M799,-122.2843C799,-143.3211 799,-175 799,-175 799,-175 490.8481,-175 490.8481,-175"/>
<polygon fill="#000000" stroke="#000000" points="490.8481,-171.5001 480.8481,-175 490.8481,-178.5001 490.8481,-171.5001"/>
</g>
<!-- CourslistComponent -->
<g id="node2" class="node">
<title>CourslistComponent</title>
<polygon fill="#ffffb3" stroke="#000000" points="707.8906,-122 576.1094,-122 576.1094,-86 707.8906,-86 707.8906,-122"/>
<text text-anchor="middle" x="642" y="-99.8" font-family="Times,serif" font-size="14.00" fill="#000000">CourslistComponent</text>
</g>
<!-- CourslistComponent&#45;&gt;PublicModule -->
<g id="edge2" class="edge">
<title>CourslistComponent&#45;&gt;PublicModule</title>
<path fill="none" stroke="#000000" d="M642,-122.0225C642,-139.3734 642,-163 642,-163 642,-163 490.6869,-163 490.6869,-163"/>
<polygon fill="#000000" stroke="#000000" points="490.6869,-159.5001 480.6869,-163 490.6868,-166.5001 490.6869,-159.5001"/>
</g>
<!-- PublicComponent -->
<g id="node3" class="node">
<title>PublicComponent</title>
<polygon fill="#ffffb3" stroke="#000000" points="557.6109,-122 440.3891,-122 440.3891,-86 557.6109,-86 557.6109,-122"/>
<text text-anchor="middle" x="499" y="-99.8" font-family="Times,serif" font-size="14.00" fill="#000000">PublicComponent</text>
</g>
<!-- PublicComponent&#45;&gt;PublicModule -->
<g id="edge3" class="edge">
<title>PublicComponent&#45;&gt;PublicModule</title>
<path fill="none" stroke="#000000" d="M460.5544,-122.1061C460.5544,-122.1061 460.5544,-140.991 460.5544,-140.991"/>
<polygon fill="#000000" stroke="#000000" points="457.0544,-140.9909 460.5544,-150.991 464.0544,-140.991 457.0544,-140.9909"/>
</g>
<!-- TarifComponent -->
<g id="node4" class="node">
<title>TarifComponent</title>
<polygon fill="#ffffb3" stroke="#000000" points="422.8118,-122 313.1882,-122 313.1882,-86 422.8118,-86 422.8118,-122"/>
<text text-anchor="middle" x="368" y="-99.8" font-family="Times,serif" font-size="14.00" fill="#000000">TarifComponent</text>
</g>
<!-- TarifComponent&#45;&gt;PublicModule -->
<g id="edge4" class="edge">
<title>TarifComponent&#45;&gt;PublicModule</title>
<path fill="none" stroke="#000000" d="M403.9958,-122.1061C403.9958,-122.1061 403.9958,-140.991 403.9958,-140.991"/>
<polygon fill="#000000" stroke="#000000" points="400.4959,-140.9909 403.9958,-150.991 407.4959,-140.991 400.4959,-140.9909"/>
</g>
<!-- MaterialModule -->
<g id="node6" class="node">
<title>MaterialModule</title>
<polygon fill="#8dd3c7" stroke="#000000" points="289.4706,-122 286.4706,-126 265.4706,-126 262.4706,-122 182.5294,-122 182.5294,-86 289.4706,-86 289.4706,-122"/>
<text text-anchor="middle" x="236" y="-99.8" font-family="Times,serif" font-size="14.00" fill="#000000">MaterialModule</text>
</g>
<!-- MaterialModule&#45;&gt;PublicModule -->
<g id="edge5" class="edge">
<title>MaterialModule&#45;&gt;PublicModule</title>
<path fill="none" stroke="#000000" d="M236,-122.0225C236,-139.3734 236,-163 236,-163 236,-163 375.3118,-163 375.3118,-163"/>
<polygon fill="#000000" stroke="#000000" points="375.3118,-166.5001 385.3118,-163 375.3118,-159.5001 375.3118,-166.5001"/>
</g>
<!-- PublicRoutingModule -->
<g id="node7" class="node">
<title>PublicRoutingModule</title>
<polygon fill="#8dd3c7" stroke="#000000" points="164.4467,-122 161.4467,-126 140.4467,-126 137.4467,-122 23.5533,-122 23.5533,-86 164.4467,-86 164.4467,-122"/>
<text text-anchor="middle" x="94" y="-99.8" font-family="Times,serif" font-size="14.00" fill="#000000">PublicRoutingModule</text>
</g>
<!-- PublicRoutingModule&#45;&gt;PublicModule -->
<g id="edge6" class="edge">
<title>PublicRoutingModule&#45;&gt;PublicModule</title>
<path fill="none" stroke="#000000" d="M94,-122.2843C94,-143.3211 94,-175 94,-175 94,-175 375.1486,-175 375.1486,-175"/>
<polygon fill="#000000" stroke="#000000" points="375.1486,-178.5001 385.1486,-175 375.1485,-171.5001 375.1486,-178.5001"/>
</g>
</g>
</svg>
