<?xml version="1.0" encoding="UTF-8" standalone="no"?>
<!DOCTYPE svg PUBLIC "-//W3C//DTD SVG 1.1//EN"
 "http://www.w3.org/Graphics/SVG/1.1/DTD/svg11.dtd">
<!-- Generated by graphviz version 2.40.1 (20161225.0304)
 -->
<!-- Title: dependencies Pages: 1 -->
<svg width="852pt" height="211pt"
 viewBox="0.00 0.00 852.00 211.00" xmlns="http://www.w3.org/2000/svg" xmlns:xlink="http://www.w3.org/1999/xlink">
<g id="graph0" class="graph" transform="scale(1 1) rotate(0) translate(4 207)">
<title>dependencies</title>
<polygon fill="#ffffff" stroke="transparent" points="-4,4 -4,-207 848,-207 848,4 -4,4"/>
<text text-anchor="start" x="401.0091" y="-42.4" font-family="sans-serif" font-weight="bold" font-size="14.00" fill="#000000">Legend</text>
<polygon fill="#ffffb3" stroke="transparent" points="188,-10 188,-30 208,-30 208,-10 188,-10"/>
<text text-anchor="start" x="211.629" y="-15.4" font-family="sans-serif" font-size="14.00" fill="#000000"> &#160;Declarations</text>
<polygon fill="#8dd3c7" stroke="transparent" points="301,-10 301,-30 321,-30 321,-10 301,-10"/>
<text text-anchor="start" x="324.7251" y="-15.4" font-family="sans-serif" font-size="14.00" fill="#000000"> &#160;Module</text>
<polygon fill="#80b1d3" stroke="transparent" points="387,-10 387,-30 407,-30 407,-10 387,-10"/>
<text text-anchor="start" x="410.7812" y="-15.4" font-family="sans-serif" font-size="14.00" fill="#000000"> &#160;Bootstrap</text>
<polygon fill="#fdb462" stroke="transparent" points="484,-10 484,-30 504,-30 504,-10 484,-10"/>
<text text-anchor="start" x="507.6732" y="-15.4" font-family="sans-serif" font-size="14.00" fill="#000000"> &#160;Providers</text>
<polygon fill="#fb8072" stroke="transparent" points="580,-10 580,-30 600,-30 600,-10 580,-10"/>
<text text-anchor="start" x="603.7258" y="-15.4" font-family="sans-serif" font-size="14.00" fill="#000000"> &#160;Exports</text>
<g id="clust1" class="cluster">
<title>cluster_ClientModule</title>
<polygon fill="none" stroke="#000000" stroke-dasharray="1,5" points="8,-70 8,-195 836,-195 836,-70 8,-70"/>
</g>
<g id="clust2" class="cluster">
<title>cluster_ClientModule_declarations</title>
<polygon fill="none" stroke="#000000" points="178,-78 178,-130 828,-130 828,-78 178,-78"/>
</g>
<g id="clust7" class="cluster">
<title>cluster_ClientModule_imports</title>
<polygon fill="none" stroke="#000000" points="16,-78 16,-130 170,-130 170,-78 16,-78"/>
</g>
<!-- CalendrierCoursComponent -->
<g id="node1" class="node">
<title>CalendrierCoursComponent</title>
<polygon fill="#ffffb3" stroke="#000000" points="819.8571,-122 646.1429,-122 646.1429,-86 819.8571,-86 819.8571,-122"/>
<text text-anchor="middle" x="733" y="-99.8" font-family="Times,serif" font-size="14.00" fill="#000000">CalendrierCoursComponent</text>
</g>
<!-- ClientModule -->
<g id="node5" class="node">
<title>ClientModule</title>
<polygon fill="#8dd3c7" stroke="#000000" points="471.7731,-187 468.7731,-191 447.7731,-191 444.7731,-187 378.2269,-187 378.2269,-151 471.7731,-151 471.7731,-187"/>
<text text-anchor="middle" x="425" y="-164.8" font-family="Times,serif" font-size="14.00" fill="#000000">ClientModule</text>
</g>
<!-- CalendrierCoursComponent&#45;&gt;ClientModule -->
<g id="edge1" class="edge">
<title>CalendrierCoursComponent&#45;&gt;ClientModule</title>
<path fill="none" stroke="#000000" d="M733,-122.2843C733,-143.3211 733,-175 733,-175 733,-175 481.7786,-175 481.7786,-175"/>
<polygon fill="#000000" stroke="#000000" points="481.7786,-171.5001 471.7786,-175 481.7785,-178.5001 481.7786,-171.5001"/>
</g>
<!-- ClientComponent -->
<g id="node2" class="node">
<title>ClientComponent</title>
<polygon fill="#ffffb3" stroke="#000000" points="627.5563,-122 512.4437,-122 512.4437,-86 627.5563,-86 627.5563,-122"/>
<text text-anchor="middle" x="570" y="-99.8" font-family="Times,serif" font-size="14.00" fill="#000000">ClientComponent</text>
</g>
<!-- ClientComponent&#45;&gt;ClientModule -->
<g id="edge2" class="edge">
<title>ClientComponent&#45;&gt;ClientModule</title>
<path fill="none" stroke="#000000" d="M570,-122.0225C570,-139.3734 570,-163 570,-163 570,-163 482.0773,-163 482.0773,-163"/>
<polygon fill="#000000" stroke="#000000" points="482.0774,-159.5001 472.0773,-163 482.0773,-166.5001 482.0774,-159.5001"/>
</g>
<!-- MesCoursComponent -->
<g id="node3" class="node">
<title>MesCoursComponent</title>
<polygon fill="#ffffb3" stroke="#000000" points="494.3781,-122 355.6219,-122 355.6219,-86 494.3781,-86 494.3781,-122"/>
<text text-anchor="middle" x="425" y="-99.8" font-family="Times,serif" font-size="14.00" fill="#000000">MesCoursComponent</text>
</g>
<!-- MesCoursComponent&#45;&gt;ClientModule -->
<g id="edge3" class="edge">
<title>MesCoursComponent&#45;&gt;ClientModule</title>
<path fill="none" stroke="#000000" d="M425,-122.1061C425,-122.1061 425,-140.991 425,-140.991"/>
<polygon fill="#000000" stroke="#000000" points="421.5001,-140.9909 425,-150.991 428.5001,-140.991 421.5001,-140.9909"/>
</g>
<!-- MonCompteComponent -->
<g id="node4" class="node">
<title>MonCompteComponent</title>
<polygon fill="#ffffb3" stroke="#000000" points="338.1094,-122 185.8906,-122 185.8906,-86 338.1094,-86 338.1094,-122"/>
<text text-anchor="middle" x="262" y="-99.8" font-family="Times,serif" font-size="14.00" fill="#000000">MonCompteComponent</text>
</g>
<!-- MonCompteComponent&#45;&gt;ClientModule -->
<g id="edge4" class="edge">
<title>MonCompteComponent&#45;&gt;ClientModule</title>
<path fill="none" stroke="#000000" d="M262,-122.0225C262,-139.3734 262,-163 262,-163 262,-163 367.8536,-163 367.8536,-163"/>
<polygon fill="#000000" stroke="#000000" points="367.8537,-166.5001 377.8536,-163 367.8536,-159.5001 367.8537,-166.5001"/>
</g>
<!-- ClientRoutingModule -->
<g id="node6" class="node">
<title>ClientRoutingModule</title>
<polygon fill="#8dd3c7" stroke="#000000" points="162.3906,-122 159.3906,-126 138.3906,-126 135.3906,-122 23.6094,-122 23.6094,-86 162.3906,-86 162.3906,-122"/>
<text text-anchor="middle" x="93" y="-99.8" font-family="Times,serif" font-size="14.00" fill="#000000">ClientRoutingModule</text>
</g>
<!-- ClientRoutingModule&#45;&gt;ClientModule -->
<g id="edge5" class="edge">
<title>ClientRoutingModule&#45;&gt;ClientModule</title>
<path fill="none" stroke="#000000" d="M93,-122.2843C93,-143.3211 93,-175 93,-175 93,-175 368.1367,-175 368.1367,-175"/>
<polygon fill="#000000" stroke="#000000" points="368.1367,-178.5001 378.1367,-175 368.1366,-171.5001 368.1367,-178.5001"/>
</g>
</g>
</svg>
