<?xml version="1.0" encoding="UTF-8" standalone="no"?>
<!DOCTYPE svg PUBLIC "-//W3C//DTD SVG 1.1//EN"
 "http://www.w3.org/Graphics/SVG/1.1/DTD/svg11.dtd">
<!-- Generated by graphviz version 2.40.1 (20161225.0304)
 -->
<!-- Title: dependencies Pages: 1 -->
<svg width="1780pt" height="284pt"
 viewBox="0.00 0.00 1780.00 284.00" xmlns="http://www.w3.org/2000/svg" xmlns:xlink="http://www.w3.org/1999/xlink">
<g id="graph0" class="graph" transform="scale(1 1) rotate(0) translate(4 280)">
<title>dependencies</title>
<polygon fill="#ffffff" stroke="transparent" points="-4,4 -4,-280 1776,-280 1776,4 -4,4"/>
<text text-anchor="start" x="865.0091" y="-42.4" font-family="sans-serif" font-weight="bold" font-size="14.00" fill="#000000">Legend</text>
<polygon fill="#ffffb3" stroke="transparent" points="652,-10 652,-30 672,-30 672,-10 652,-10"/>
<text text-anchor="start" x="675.629" y="-15.4" font-family="sans-serif" font-size="14.00" fill="#000000"> &#160;Declarations</text>
<polygon fill="#8dd3c7" stroke="transparent" points="765,-10 765,-30 785,-30 785,-10 765,-10"/>
<text text-anchor="start" x="788.7251" y="-15.4" font-family="sans-serif" font-size="14.00" fill="#000000"> &#160;Module</text>
<polygon fill="#80b1d3" stroke="transparent" points="851,-10 851,-30 871,-30 871,-10 851,-10"/>
<text text-anchor="start" x="874.7812" y="-15.4" font-family="sans-serif" font-size="14.00" fill="#000000"> &#160;Bootstrap</text>
<polygon fill="#fdb462" stroke="transparent" points="948,-10 948,-30 968,-30 968,-10 948,-10"/>
<text text-anchor="start" x="971.6732" y="-15.4" font-family="sans-serif" font-size="14.00" fill="#000000"> &#160;Providers</text>
<polygon fill="#fb8072" stroke="transparent" points="1044,-10 1044,-30 1064,-30 1064,-10 1044,-10"/>
<text text-anchor="start" x="1067.7258" y="-15.4" font-family="sans-serif" font-size="14.00" fill="#000000"> &#160;Exports</text>
<g id="clust1" class="cluster">
<title>cluster_AppModule</title>
<polygon fill="none" stroke="#000000" stroke-dasharray="1,5" points="8,-70 8,-268 1764,-268 1764,-70 8,-70"/>
</g>
<g id="clust2" class="cluster">
<title>cluster_AppModule_declarations</title>
<polygon fill="none" stroke="#000000" points="293,-78 293,-130 1756,-130 1756,-78 293,-78"/>
</g>
<g id="clust13" class="cluster">
<title>cluster_AppModule_imports</title>
<polygon fill="none" stroke="#000000" points="16,-78 16,-130 285,-130 285,-78 16,-78"/>
</g>
<g id="clust15" class="cluster">
<title>cluster_AppModule_bootstrap</title>
<polygon fill="none" stroke="#000000" points="841,-208 841,-260 965,-260 965,-208 841,-208"/>
</g>
<!-- AppComponent -->
<g id="node1" class="node">
<title>AppComponent</title>
<polygon fill="#ffffb3" stroke="#000000" points="1747.9399,-122 1642.0601,-122 1642.0601,-86 1747.9399,-86 1747.9399,-122"/>
<text text-anchor="middle" x="1695" y="-99.8" font-family="Times,serif" font-size="14.00" fill="#000000">AppComponent</text>
</g>
<!-- AppModule -->
<g id="node11" class="node">
<title>AppModule</title>
<polygon fill="#8dd3c7" stroke="#000000" points="944.6571,-187 941.6571,-191 920.6571,-191 917.6571,-187 861.3429,-187 861.3429,-151 944.6571,-151 944.6571,-187"/>
<text text-anchor="middle" x="903" y="-164.8" font-family="Times,serif" font-size="14.00" fill="#000000">AppModule</text>
</g>
<!-- AppComponent&#45;&gt;AppModule -->
<g id="edge1" class="edge">
<title>AppComponent&#45;&gt;AppModule</title>
<path fill="none" stroke="#000000" d="M1695,-122.2479C1695,-145.0179 1695,-181 1695,-181 1695,-181 954.7438,-181 954.7438,-181"/>
<polygon fill="#000000" stroke="#000000" points="954.7438,-177.5001 944.7438,-181 954.7438,-184.5001 954.7438,-177.5001"/>
</g>
<!-- DecouverteComponent -->
<g id="node2" class="node">
<title>DecouverteComponent</title>
<polygon fill="#ffffb3" stroke="#000000" points="1623.8487,-122 1478.1513,-122 1478.1513,-86 1623.8487,-86 1623.8487,-122"/>
<text text-anchor="middle" x="1551" y="-99.8" font-family="Times,serif" font-size="14.00" fill="#000000">DecouverteComponent</text>
</g>
<!-- DecouverteComponent&#45;&gt;AppModule -->
<g id="edge2" class="edge">
<title>DecouverteComponent&#45;&gt;AppModule</title>
<path fill="none" stroke="#000000" d="M1551,-122.2843C1551,-143.3211 1551,-175 1551,-175 1551,-175 955.0178,-175 955.0178,-175"/>
<polygon fill="#000000" stroke="#000000" points="955.0178,-171.5001 945.0178,-175 955.0178,-178.5001 955.0178,-171.5001"/>
</g>
<!-- FooterComponent -->
<g id="node3" class="node">
<title>FooterComponent</title>
<polygon fill="#ffffb3" stroke="#000000" points="1459.8809,-122 1342.1191,-122 1342.1191,-86 1459.8809,-86 1459.8809,-122"/>
<text text-anchor="middle" x="1401" y="-99.8" font-family="Times,serif" font-size="14.00" fill="#000000">FooterComponent</text>
</g>
<!-- FooterComponent&#45;&gt;AppModule -->
<g id="edge3" class="edge">
<title>FooterComponent&#45;&gt;AppModule</title>
<path fill="none" stroke="#000000" d="M1401,-122.1061C1401,-141.3391 1401,-169 1401,-169 1401,-169 955.03,-169 955.03,-169"/>
<polygon fill="#000000" stroke="#000000" points="955.03,-165.5001 945.03,-169 955.03,-172.5001 955.03,-165.5001"/>
</g>
<!-- HomeComponent -->
<g id="node4" class="node">
<title>HomeComponent</title>
<polygon fill="#ffffb3" stroke="#000000" points="1323.5451,-122 1208.4549,-122 1208.4549,-86 1323.5451,-86 1323.5451,-122"/>
<text text-anchor="middle" x="1266" y="-99.8" font-family="Times,serif" font-size="14.00" fill="#000000">HomeComponent</text>
</g>
<!-- HomeComponent&#45;&gt;AppModule -->
<g id="edge4" class="edge">
<title>HomeComponent&#45;&gt;AppModule</title>
<path fill="none" stroke="#000000" d="M1266,-122.0225C1266,-139.3734 1266,-163 1266,-163 1266,-163 954.9953,-163 954.9953,-163"/>
<polygon fill="#000000" stroke="#000000" points="954.9954,-159.5001 944.9953,-163 954.9953,-166.5001 954.9954,-159.5001"/>
</g>
<!-- LoginComponent -->
<g id="node5" class="node">
<title>LoginComponent</title>
<polygon fill="#ffffb3" stroke="#000000" points="1190.2758,-122 1075.7242,-122 1075.7242,-86 1190.2758,-86 1190.2758,-122"/>
<text text-anchor="middle" x="1133" y="-99.8" font-family="Times,serif" font-size="14.00" fill="#000000">LoginComponent</text>
</g>
<!-- LoginComponent&#45;&gt;AppModule -->
<g id="edge5" class="edge">
<title>LoginComponent&#45;&gt;AppModule</title>
<path fill="none" stroke="#000000" d="M1133,-122.2396C1133,-137.5706 1133,-157 1133,-157 1133,-157 954.9181,-157 954.9181,-157"/>
<polygon fill="#000000" stroke="#000000" points="954.9181,-153.5001 944.9181,-157 954.9181,-160.5001 954.9181,-153.5001"/>
</g>
<!-- MediaqueryComponent -->
<g id="node6" class="node">
<title>MediaqueryComponent</title>
<polygon fill="#ffffb3" stroke="#000000" points="1057.472,-122 908.528,-122 908.528,-86 1057.472,-86 1057.472,-122"/>
<text text-anchor="middle" x="983" y="-99.8" font-family="Times,serif" font-size="14.00" fill="#000000">MediaqueryComponent</text>
</g>
<!-- MediaqueryComponent&#45;&gt;AppModule -->
<g id="edge6" class="edge">
<title>MediaqueryComponent&#45;&gt;AppModule</title>
<path fill="none" stroke="#000000" d="M926.6711,-122.1061C926.6711,-122.1061 926.6711,-140.991 926.6711,-140.991"/>
<polygon fill="#000000" stroke="#000000" points="923.1712,-140.9909 926.6711,-150.991 930.1712,-140.991 923.1712,-140.9909"/>
</g>
<!-- ResponsiveDirective -->
<g id="node7" class="node">
<title>ResponsiveDirective</title>
<polygon fill="#ffffb3" stroke="#000000" points="890.1289,-122 757.8711,-122 757.8711,-86 890.1289,-86 890.1289,-122"/>
<text text-anchor="middle" x="824" y="-99.8" font-family="Times,serif" font-size="14.00" fill="#000000">ResponsiveDirective</text>
</g>
<!-- ResponsiveDirective&#45;&gt;AppModule -->
<g id="edge7" class="edge">
<title>ResponsiveDirective&#45;&gt;AppModule</title>
<path fill="none" stroke="#000000" d="M875.743,-122.1061C875.743,-122.1061 875.743,-140.991 875.743,-140.991"/>
<polygon fill="#000000" stroke="#000000" points="872.2431,-140.9909 875.743,-150.991 879.2431,-140.991 872.2431,-140.9909"/>
</g>
<!-- ShowIfLoggedInDirective -->
<g id="node8" class="node">
<title>ShowIfLoggedInDirective</title>
<polygon fill="#ffffb3" stroke="#000000" points="739.7212,-122 576.2788,-122 576.2788,-86 739.7212,-86 739.7212,-122"/>
<text text-anchor="middle" x="658" y="-99.8" font-family="Times,serif" font-size="14.00" fill="#000000">ShowIfLoggedInDirective</text>
</g>
<!-- ShowIfLoggedInDirective&#45;&gt;AppModule -->
<g id="edge8" class="edge">
<title>ShowIfLoggedInDirective&#45;&gt;AppModule</title>
<path fill="none" stroke="#000000" d="M658,-122.2396C658,-137.5706 658,-157 658,-157 658,-157 851.1614,-157 851.1614,-157"/>
<polygon fill="#000000" stroke="#000000" points="851.1614,-160.5001 861.1614,-157 851.1613,-153.5001 851.1614,-160.5001"/>
</g>
<!-- TestComponent -->
<g id="node9" class="node">
<title>TestComponent</title>
<polygon fill="#ffffb3" stroke="#000000" points="557.9357,-122 452.0643,-122 452.0643,-86 557.9357,-86 557.9357,-122"/>
<text text-anchor="middle" x="505" y="-99.8" font-family="Times,serif" font-size="14.00" fill="#000000">TestComponent</text>
</g>
<!-- TestComponent&#45;&gt;AppModule -->
<g id="edge9" class="edge">
<title>TestComponent&#45;&gt;AppModule</title>
<path fill="none" stroke="#000000" d="M505,-122.0225C505,-139.3734 505,-163 505,-163 505,-163 851.1593,-163 851.1593,-163"/>
<polygon fill="#000000" stroke="#000000" points="851.1593,-166.5001 861.1593,-163 851.1592,-159.5001 851.1593,-166.5001"/>
</g>
<!-- showIfRoleDirective -->
<g id="node10" class="node">
<title>showIfRoleDirective</title>
<polygon fill="#ffffb3" stroke="#000000" points="434.8976,-122 301.1024,-122 301.1024,-86 434.8976,-86 434.8976,-122"/>
<text text-anchor="middle" x="368" y="-99.8" font-family="Times,serif" font-size="14.00" fill="#000000">showIfRoleDirective</text>
</g>
<!-- showIfRoleDirective&#45;&gt;AppModule -->
<g id="edge10" class="edge">
<title>showIfRoleDirective&#45;&gt;AppModule</title>
<path fill="none" stroke="#000000" d="M368,-122.1061C368,-141.3391 368,-169 368,-169 368,-169 851.0194,-169 851.0194,-169"/>
<polygon fill="#000000" stroke="#000000" points="851.0195,-172.5001 861.0194,-169 851.0194,-165.5001 851.0195,-172.5001"/>
</g>
<!-- AppComponent  -->
<g id="node14" class="node">
<title>AppComponent </title>
<polygon fill="#80b1d3" stroke="#000000" points="957.439,-252 848.561,-252 848.561,-216 957.439,-216 957.439,-252"/>
<text text-anchor="middle" x="903" y="-229.8" font-family="Times,serif" font-size="14.00" fill="#000000">AppComponent </text>
</g>
<!-- AppModule&#45;&gt;AppComponent  -->
<g id="edge13" class="edge">
<title>AppModule&#45;&gt;AppComponent </title>
<path fill="none" stroke="#000000" stroke-dasharray="1,5" d="M903,-187.1061C903,-187.1061 903,-205.991 903,-205.991"/>
<polygon fill="#000000" stroke="#000000" points="899.5001,-205.9909 903,-215.991 906.5001,-205.991 899.5001,-205.9909"/>
</g>
<!-- AppRoutingModule -->
<g id="node12" class="node">
<title>AppRoutingModule</title>
<polygon fill="#8dd3c7" stroke="#000000" points="277.2744,-122 274.2744,-126 253.2744,-126 250.2744,-122 148.7256,-122 148.7256,-86 277.2744,-86 277.2744,-122"/>
<text text-anchor="middle" x="213" y="-99.8" font-family="Times,serif" font-size="14.00" fill="#000000">AppRoutingModule</text>
</g>
<!-- AppRoutingModule&#45;&gt;AppModule -->
<g id="edge11" class="edge">
<title>AppRoutingModule&#45;&gt;AppModule</title>
<path fill="none" stroke="#000000" d="M213,-122.2843C213,-143.3211 213,-175 213,-175 213,-175 851.134,-175 851.134,-175"/>
<polygon fill="#000000" stroke="#000000" points="851.1341,-178.5001 861.134,-175 851.134,-171.5001 851.1341,-178.5001"/>
</g>
<!-- MaterialModule -->
<g id="node13" class="node">
<title>MaterialModule</title>
<polygon fill="#8dd3c7" stroke="#000000" points="130.4706,-122 127.4706,-126 106.4706,-126 103.4706,-122 23.5294,-122 23.5294,-86 130.4706,-86 130.4706,-122"/>
<text text-anchor="middle" x="77" y="-99.8" font-family="Times,serif" font-size="14.00" fill="#000000">MaterialModule</text>
</g>
<!-- MaterialModule&#45;&gt;AppModule -->
<g id="edge12" class="edge">
<title>MaterialModule&#45;&gt;AppModule</title>
<path fill="none" stroke="#000000" d="M77,-122.2479C77,-145.0179 77,-181 77,-181 77,-181 851.1881,-181 851.1881,-181"/>
<polygon fill="#000000" stroke="#000000" points="851.1882,-184.5001 861.1881,-181 851.1881,-177.5001 851.1882,-184.5001"/>
</g>
</g>
</svg>
